# ProBuilder 5.1.1
# https://unity3d.com/unity/features/worldbuilding/probuilder
# 11/29/2023 3:17:21 PM

mtllib ./Arch.mtl
o Arch

g Arch
v -4 1.788139E-07 0
v -3.847759 0.7653671 0
v -4 1.788139E-07 1
v -3.847759 0.7653671 1
v -2.92388 0.3826836 0
v -3 1.788139E-07 0
v -2.92388 0.3826836 1
v -3 1.788139E-07 1
v -3.414214 1.414214 0
v -3.414214 1.414214 1
v -2.707107 0.7071069 0
v -2.707107 0.7071069 1
v -2.765367 1.847759 0
v -2.765367 1.847759 1
v -2.382684 0.9238797 0
v -2.382684 0.9238797 1
v -2 2 0
v -2 2 1
v -2 1 0
v -2 1 1
v -1.234633 1.847759 0
v -1.234633 1.847759 1
v -1.617317 0.9238797 0
v -1.617317 0.9238797 1
v -0.5857865 1.414214 0
v -0.5857865 1.414214 1
v -1.292893 0.7071069 0
v -1.292893 0.7071069 1
v -0.152241 0.7653672 0
v -0.152241 0.7653672 1
v -1.07612 0.3826837 0
v -1.07612 0.3826837 1
v 0 3.968381E-09 0
v 0 3.968381E-09 1
v -1 9.139116E-08 0
v -1 9.139116E-08 1

vt 0 -0.7803614
vt 0 -3.757521E-08
vt 1 -0.7803614
vt 1 -3.757521E-08
vt 0 -0.1950894
vt 0 -0.5852701
vt -1 -0.1950894
vt -1 -0.5852701
vt -4 1
vt -3 1
vt -4 0
vt -3 0
vt 0 -1.501321
vt 0 -0.7209597
vt 1 -1.501321
vt 1 -0.7209597
vt 0 -0.9160504
vt 0 -1.306231
vt -1 -0.9160504
vt -1 -1.306231
vt 2.05312 0
vt 1.272759 0
vt 2.05312 1
vt 1.272759 1
vt -1.467849 0
vt -1.858029 0
vt -1.467849 1
vt -1.858029 1
vt 2.351751 0
vt 1.57139 0
vt 2.351751 1
vt 1.57139 1
vt -1.76648 0
vt -2.156661 0
vt -1.76648 1
vt -2.156661 1
vt 0 1.501321
vt 0 0.72096
vt -1 1.501321
vt -1 0.72096
vt 0 0.9160503
vt 0 1.306231
vt 1 0.9160503
vt 1 1.306231
vt 0 0.7803616
vt -1 0.7803616
vt -1 3.89213E-09
vt 0 0.1950904
vt 0 0.5852712
vt 1 0.1950904
vt 1 0.5852712
vt -1 1
vt -3.469269E-16 1
vt -3.847759 0.7653671
vt -2.92388 0.3826836
vt 3.847759 0.7653671
vt 4 1.788139E-07
vt 2.92388 0.3826836
vt 3 1.788139E-07
vt -3.414214 1.414214
vt -2.707107 0.7071069
vt 3.414214 1.414214
vt 2.707107 0.7071069
vt -2.765367 1.847759
vt -2.382684 0.9238797
vt 2.765367 1.847759
vt 2.382684 0.9238797
vt -2 2
vt -2 1
vt 2 2
vt 2 1
vt -1.234633 1.847759
vt -1.617317 0.9238797
vt 1.234633 1.847759
vt 1.617317 0.9238797
vt -0.5857865 1.414214
vt -1.292893 0.7071069
vt 0.5857865 1.414214
vt 1.292893 0.7071069
vt -0.152241 0.7653672
vt -1.07612 0.3826837
vt 0.152241 0.7653672
vt 1.07612 0.3826837

vn -0.9807853 0.1950904 0
vn 0.9807853 -0.1950901 0
vn 0 -1 0
vn -0.8314697 0.5555702 0
vn 0.8314695 -0.5555704 0
vn -0.5555702 0.8314697 0
vn 0.5555702 -0.8314696 0
vn -0.1950904 0.9807853 0
vn 0.1950905 -0.9807853 0
vn 0.1950904 0.9807853 0
vn -0.1950904 -0.9807853 0
vn 0.5555703 0.8314696 0
vn -0.5555702 -0.8314697 0
vn 0.8314695 0.5555703 0
vn -0.8314697 -0.5555702 0
vn 0.9807853 0.1950903 0
vn -0.9807853 -0.1950903 0
vn 0 0 1
vn 0 0 -1

usemtl Lit
f 3/3/1 4/4/1 2/2/1 1/1/1
f 7/7/2 8/8/2 6/6/2 5/5/2
f 1/11/3 6/12/3 8/10/3 3/9/3
f 4/15/4 10/16/4 9/14/4 2/13/4
f 12/19/5 7/20/5 5/18/5 11/17/5
f 10/23/6 14/24/6 13/22/6 9/21/6
f 16/27/7 12/28/7 11/26/7 15/25/7
f 14/31/8 18/32/8 17/30/8 13/29/8
f 20/35/9 16/36/9 15/34/9 19/33/9
f 18/31/10 22/32/10 21/30/10 17/29/10
f 24/35/11 20/36/11 19/34/11 23/33/11
f 22/23/12 26/24/12 25/22/12 21/21/12
f 28/27/13 24/28/13 23/26/13 27/25/13
f 26/39/14 30/40/14 29/38/14 25/37/14
f 32/43/15 28/44/15 27/42/15 31/41/15
f 30/46/16 34/47/16 33/2/16 29/45/16
f 36/50/17 32/51/17 31/49/17 35/48/17
f 35/47/3 33/2/3 34/53/3 36/52/3
f 8/12/18 7/55/18 4/54/18 3/11/18
f 5/58/19 6/59/19 1/57/19 2/56/19
f 7/55/18 12/61/18 10/60/18 4/54/18
f 11/63/19 5/58/19 2/56/19 9/62/19
f 12/61/18 16/65/18 14/64/18 10/60/18
f 15/67/19 11/63/19 9/62/19 13/66/19
f 16/65/18 20/69/18 18/68/18 14/64/18
f 19/71/19 15/67/19 13/66/19 17/70/19
f 20/69/18 24/73/18 22/72/18 18/68/18
f 23/75/19 19/71/19 17/70/19 21/74/19
f 24/73/18 28/77/18 26/76/18 22/72/18
f 27/79/19 23/75/19 21/74/19 25/78/19
f 28/77/18 32/81/18 30/80/18 26/76/18
f 31/83/19 27/79/19 25/78/19 29/82/19
f 32/81/18 36/47/18 34/2/18 30/80/18
f 35/4/19 31/83/19 29/82/19 33/2/19

