# ProBuilder 5.1.1
# https://unity3d.com/unity/features/worldbuilding/probuilder
# 11/29/2023 3:22:24 PM

mtllib ./Pipe.mtl
o Pipe

g Pipe
v 0.2928932 0 0.7071068
v 0 0 0
v 0.2928932 0.6666667 0.7071068
v 0 0.6666667 0
v 0.25 0 0
v 0.4696699 0 0.5303301
v 0.25 0.6666667 0
v 0.4696699 0.6666667 0.5303301
v 1 0 1
v 1 0.6666667 1
v 1 0 0.75
v 1 0.6666667 0.75
v 1.707107 0 0.7071068
v 1.707107 0.6666667 0.7071068
v 1.53033 0 0.5303301
v 1.53033 0.6666667 0.5303301
v 2 0 -8.742278E-08
v 2 0.6666667 -8.742278E-08
v 1.75 0 -6.556708E-08
v 1.75 0.6666667 -6.556708E-08
v 1.707107 0 -0.7071067
v 1.707107 0.6666667 -0.7071067
v 1.53033 0 -0.5303301
v 1.53033 0.6666667 -0.5303301
v 1 0 -1
v 1 0.6666667 -1
v 1 0 -0.75
v 1 0.6666667 -0.75
v 0.2928934 0 -0.7071069
v 0.2928934 0.6666667 -0.7071069
v 0.46967 0 -0.5303302
v 0.46967 0.6666667 -0.5303302
v 0.2928932 1.333333 0.7071068
v 0 1.333333 0
v 0.25 1.333333 0
v 0.4696699 1.333333 0.5303301
v 1 1.333333 1
v 1 1.333333 0.75
v 1.707107 1.333333 0.7071068
v 1.53033 1.333333 0.5303301
v 2 1.333333 -8.742278E-08
v 1.75 1.333333 -6.556708E-08
v 1.707107 1.333333 -0.7071067
v 1.53033 1.333333 -0.5303301
v 1 1.333333 -1
v 1 1.333333 -0.75
v 0.2928934 1.333333 -0.7071069
v 0.46967 1.333333 -0.5303302
v 0.2928932 2 0.7071068
v 0 2 0
v 0.25 2 0
v 0.4696699 2 0.5303301
v 1 2 1
v 1 2 0.75
v 1.707107 2 0.7071068
v 1.53033 2 0.5303301
v 2 2 -8.742278E-08
v 1.75 2 -6.556708E-08
v 1.707107 2 -0.7071067
v 1.53033 2 -0.5303301
v 1 2 -1
v 1 2 -0.75
v 0.2928934 2 -0.7071069
v 0.46967 2 -0.5303302

vt 0.7653669 0
vt 0 0
vt 0.7653669 0.6666667
vt 0 0.6666667
vt -0.09567087 0
vt -0.669696 0
vt -0.09567087 0.6666667
vt -0.669696 0.6666667
vt 1.306563 0
vt 0.5411961 0
vt 1.306563 0.6666667
vt 0.5411961 0.6666667
vt -0.636867 0
vt -1.210892 0
vt -0.636867 0.6666667
vt -1.210892 0.6666667
vt -0.7653669 0
vt -0.7653669 0.6666667
vt 0.6696959 0
vt 0.09567077 0
vt 0.6696959 0.6666667
vt 0.09567077 0.6666667
vt -0.541196 0
vt -1.306563 0
vt -0.541196 0.6666667
vt -1.306563 0.6666667
vt 1.210892 0
vt 0.636867 0
vt 1.210892 0.6666667
vt 0.636867 0.6666667
vt 0.7653669 1.333333
vt 0 1.333333
vt -0.09567087 1.333333
vt -0.669696 1.333333
vt 1.306563 1.333333
vt 0.5411961 1.333333
vt -0.636867 1.333333
vt -1.210892 1.333333
vt -0.7653669 1.333333
vt 0.6696959 1.333333
vt 0.09567077 1.333333
vt -0.541196 1.333333
vt -1.306563 1.333333
vt 1.210892 1.333333
vt 0.636867 1.333333
vt 0.7653669 2
vt 0 2
vt -0.09567087 2
vt -0.669696 2
vt 1.306563 2
vt 0.5411961 2
vt -0.636867 2
vt -1.210892 2
vt -0.7653669 2
vt 0.6696958 2
vt 0.09567075 2
vt -0.541196 2
vt -1.306563 2
vt 1.210892 2
vt 0.636867 2
vt 0.2928932 0.7071068
vt 0.25 0
vt 0.4696699 0.5303301
vt -0.2928932 0.7071068
vt -0.4696699 0.5303301
vt -0.25 0
vt 1 1
vt 1 0.75
vt -1 1
vt -1 0.75
vt 1.707107 0.7071068
vt 1.53033 0.5303301
vt -1.707107 0.7071068
vt -1.53033 0.5303301
vt 2 -8.742278E-08
vt 1.75 -6.556708E-08
vt -2 -8.742278E-08
vt -1.75 -6.556708E-08
vt 1.707107 -0.7071067
vt 1.53033 -0.5303301
vt -1.707107 -0.7071067
vt -1.53033 -0.5303301
vt 1 -1
vt 1 -0.75
vt -1 -1
vt -1 -0.75
vt 0.2928934 -0.7071069
vt 0.46967 -0.5303302
vt -0.2928934 -0.7071069
vt -0.46967 -0.5303302

vn -0.9238795 0 0.3826835
vn 0.9238795 0 -0.3826835
vn -0.3826835 0 0.9238795
vn 0.3826835 0 -0.9238795
vn 0.3826835 0 0.9238796
vn -0.3826835 0 -0.9238795
vn 0.9238796 0 0.3826834
vn -0.9238796 0 -0.3826835
vn 0 -1 0
vn 0 1 0

usemtl Lit
f 3/3/1 4/4/1 2/2/1 1/1/1
f 7/7/2 8/8/2 6/6/2 5/5/2
f 10/11/3 3/12/3 1/10/3 9/9/3
f 8/15/4 12/16/4 11/14/4 6/13/4
f 14/11/5 10/12/5 9/10/5 13/9/5
f 12/15/6 16/16/6 15/14/6 11/13/6
f 18/3/7 14/4/7 13/2/7 17/1/7
f 16/7/8 20/8/8 19/6/8 15/5/8
f 22/4/2 18/18/2 17/17/2 21/2/2
f 20/21/1 24/22/1 23/20/1 19/19/1
f 26/25/4 22/26/4 21/24/4 25/23/4
f 24/29/3 28/30/3 27/28/3 23/27/3
f 30/25/6 26/26/6 25/24/6 29/23/6
f 28/29/5 32/30/5 31/28/5 27/27/5
f 4/4/8 30/18/8 29/17/8 2/2/8
f 32/21/7 7/22/7 5/20/7 31/19/7
f 33/31/1 34/32/1 4/4/1 3/3/1
f 35/33/2 36/34/2 8/8/2 7/7/2
f 37/35/3 33/36/3 3/12/3 10/11/3
f 36/37/4 38/38/4 12/16/4 8/15/4
f 39/35/5 37/36/5 10/12/5 14/11/5
f 38/37/6 40/38/6 16/16/6 12/15/6
f 41/31/7 39/32/7 14/4/7 18/3/7
f 40/33/8 42/34/8 20/8/8 16/7/8
f 43/32/2 41/39/2 18/18/2 22/4/2
f 42/40/1 44/41/1 24/22/1 20/21/1
f 45/42/4 43/43/4 22/26/4 26/25/4
f 44/44/3 46/45/3 28/30/3 24/29/3
f 47/42/6 45/43/6 26/26/6 30/25/6
f 46/44/5 48/45/5 32/30/5 28/29/5
f 34/32/8 47/39/8 30/18/8 4/4/8
f 48/40/7 35/41/7 7/22/7 32/21/7
f 49/46/1 50/47/1 34/32/1 33/31/1
f 51/48/2 52/49/2 36/34/2 35/33/2
f 53/50/3 49/51/3 33/36/3 37/35/3
f 52/52/4 54/53/4 38/38/4 36/37/4
f 55/50/5 53/51/5 37/36/5 39/35/5
f 54/52/6 56/53/6 40/38/6 38/37/6
f 57/46/7 55/47/7 39/32/7 41/31/7
f 56/48/8 58/49/8 42/34/8 40/33/8
f 59/47/2 57/54/2 41/39/2 43/32/2
f 58/55/1 60/56/1 44/41/1 42/40/1
f 61/57/4 59/58/4 43/43/4 45/42/4
f 60/59/3 62/60/3 46/45/3 44/44/3
f 63/57/6 61/58/6 45/43/6 47/42/6
f 62/59/5 64/60/5 48/45/5 46/44/5
f 50/47/8 63/54/8 47/39/8 34/32/8
f 64/55/7 51/56/7 35/41/7 48/40/7
f 5/62/9 6/63/9 1/61/9 2/2/9
f 52/65/10 51/66/10 50/2/10 49/64/10
f 6/63/9 11/68/9 9/67/9 1/61/9
f 54/70/10 52/65/10 49/64/10 53/69/10
f 11/68/9 15/72/9 13/71/9 9/67/9
f 56/74/10 54/70/10 53/69/10 55/73/10
f 15/72/9 19/76/9 17/75/9 13/71/9
f 58/78/10 56/74/10 55/73/10 57/77/10
f 19/76/9 23/80/9 21/79/9 17/75/9
f 60/82/10 58/78/10 57/77/10 59/81/10
f 23/80/9 27/84/9 25/83/9 21/79/9
f 62/86/10 60/82/10 59/81/10 61/85/10
f 27/84/9 31/88/9 29/87/9 25/83/9
f 64/90/10 62/86/10 61/85/10 63/89/10
f 31/88/9 5/62/9 2/2/9 29/87/9
f 51/66/10 64/90/10 63/89/10 50/2/10

