# ProBuilder 5.1.1
# https://unity3d.com/unity/features/worldbuilding/probuilder
# 11/29/2023 3:22:43 PM

mtllib ./Stair.mtl
o Stair

g Stair
v -2 0 0
v 0 0 0
v -2 0.4166667 0
v 0 0.4166667 0
v -2 0.4166667 0.6666667
v 0 0.4166667 0.6666667
v -2 0.8333334 0.6666667
v 0 0.8333334 0.6666667
v -2 0.8333334 1.333333
v 0 0.8333334 1.333333
v -2 1.25 1.333333
v 0 1.25 1.333333
v -2 1.25 2
v 0 1.25 2
v -2 1.666667 2
v 0 1.666667 2
v -2 1.666667 2.666667
v 0 1.666667 2.666667
v -2 2.083333 2.666667
v 0 2.083333 2.666667
v -2 2.083333 3.333333
v 0 2.083333 3.333333
v -2 2.5 3.333333
v 0 2.5 3.333333
v -2 2.5 4
v 0 2.5 4
v 0 0 0.6666667
v 0 0 1.333333
v 0 0 2
v 0 0 2.666667
v 0 0 3.333333
v 0 0 4
v -2 0 0.6666667
v -2 0 1.333333
v -2 0 2
v -2 0 2.666667
v -2 0 3.333333
v -2 0 4

vt 2 0
vt 0 0
vt 2 0.4166667
vt 0 0.4166667
vt 2 0.6666667
vt 0 0.6666667
vt 2 0.8333334
vt 0 0.8333334
vt 2 1.333333
vt 0 1.333333
vt 2 1.25
vt 0 1.25
vt 2 2
vt 0 2
vt 2 1.666667
vt 0 1.666667
vt 2 2.666667
vt 0 2.666667
vt 2 2.083333
vt 0 2.083333
vt 2 3.333333
vt 0 3.333333
vt 2 2.5
vt 0 2.5
vt 2 4
vt 0 4
vt -0.6666667 0
vt -0.6666667 0.4166667
vt -1.333333 0
vt -1.333333 0.8333333
vt -0.6666667 0.8333333
vt -2 0
vt -2 1.25
vt -1.333333 1.25
vt -2.666667 0
vt -2.666667 1.666667
vt -2 1.666667
vt -3.333333 0
vt -3.333333 2.083333
vt -2.666667 2.083333
vt -4 0
vt -4 2.5
vt -3.333333 2.5
vt 0.6666667 0
vt 0.6666667 0.4166667
vt 1.333333 0
vt 1.333333 0.8333333
vt 0.6666667 0.8333333
vt 1.333333 1.25
vt 2.666667 0
vt 2.666667 1.666667
vt 3.333333 0
vt 3.333333 2.083333
vt 2.666667 2.083333
vt 4 0
vt 4 2.5
vt 3.333333 2.5
vt -2 2.5

vn 0 0 -1
vn 0 1 0
vn 1 0 0
vn -1 0 0
vn 0 0 1

usemtl Lit
f 6/28/3 8/31/3 10/30/3
f 10/30/3 12/34/3 14/33/3
f 14/33/3 16/37/3 18/36/3
f 18/36/3 20/40/3 22/39/3
f 22/39/3 24/43/3 26/42/3
f 9/47/4 7/48/4 5/45/4
f 13/11/4 11/49/4 9/47/4
f 17/51/4 15/15/4 13/11/4
f 21/53/4 19/54/4 17/51/4
f 25/56/4 23/57/4 21/53/4
f 4/4/1 2/2/1 1/1/1
f 1/1/1 3/3/1 4/4/1
f 6/6/2 4/2/2 3/1/2
f 3/1/2 5/5/2 6/6/2
f 8/8/1 6/4/1 5/3/1
f 5/3/1 7/7/1 8/8/1
f 10/10/2 8/6/2 7/5/2
f 7/5/2 9/9/2 10/10/2
f 12/12/1 10/8/1 9/7/1
f 9/7/1 11/11/1 12/12/1
f 14/14/2 12/10/2 11/9/2
f 11/9/2 13/13/2 14/14/2
f 16/16/1 14/12/1 13/11/1
f 13/11/1 15/15/1 16/16/1
f 18/18/2 16/14/2 15/13/2
f 15/13/2 17/17/2 18/18/2
f 20/20/1 18/16/1 17/15/1
f 17/15/1 19/19/1 20/20/1
f 22/22/2 20/18/2 19/17/2
f 19/17/2 21/21/2 22/22/2
f 24/24/1 22/20/1 21/19/1
f 21/19/1 23/23/1 24/24/1
f 26/26/2 24/22/2 23/21/2
f 23/21/2 25/25/2 26/26/2
f 6/28/3 27/27/3 2/2/3
f 2/2/3 4/4/3 6/28/3
f 10/30/3 28/29/3 27/27/3
f 27/27/3 6/28/3 10/30/3
f 14/33/3 29/32/3 28/29/3
f 28/29/3 10/30/3 14/33/3
f 18/36/3 30/35/3 29/32/3
f 29/32/3 14/33/3 18/36/3
f 22/39/3 31/38/3 30/35/3
f 30/35/3 18/36/3 22/39/3
f 26/42/3 32/41/3 31/38/3
f 31/38/3 22/39/3 26/42/3
f 3/4/4 1/2/4 33/44/4
f 33/44/4 5/45/4 3/4/4
f 5/45/4 33/44/4 34/46/4
f 34/46/4 9/47/4 5/45/4
f 9/47/4 34/46/4 35/1/4
f 35/1/4 13/11/4 9/47/4
f 13/11/4 35/1/4 36/50/4
f 36/50/4 17/51/4 13/11/4
f 17/51/4 36/50/4 37/52/4
f 37/52/4 21/53/4 17/51/4
f 21/53/4 37/52/4 38/55/4
f 38/55/4 25/56/4 21/53/4
f 25/58/5 38/32/5 32/2/5
f 32/2/5 26/24/5 25/58/5

